# xmcd
# 
# Track frame offsets:
#     150
#     15166
#     55372
#     77474
#     108471
#     124160
#     138721
#     144424
#     166523
#     184978
#     206193
#     226940
#     242406
#     274723
# 
# Disc length: 3820
# 
# Revision: 1
# Processed by: cddbd v1.5.2PL0 Copyright (c) Steve Scherf et al.
# Submitted via: fre:ac v1.0.17
# 
DISCID=b80eea0e
DTITLE=radio.string.quartet.vienna - radiodream
DYEAR=2011
DGENRE=Jazz
TTITLE0=Inception
TTITLE1=Song - Ode an den Freud
TTITLE2=Liebestraum
TTITLE3=Traffic to the Dolphin
TTITLE4=Nice Dream
TTITLE5=Strange Fruit
TTITLE6=Jazz
TTITLE7=Of Memories
TTITLE8=Moon River
TTITLE9=One Night in Vienna
TTITLE10=Saint Paul's Nightmare
TTITLE11=Lonely Night
TTITLE12=Dream Caused By The Flight Of A Bee Around A Pomegranata A Second Before Awakening
TTITLE13=Extraction - I Loves You, Porgy
EXTD=YEAR: 2011
EXTT0=
EXTT1=
EXTT2=
EXTT3=
EXTT4=
EXTT5=
EXTT6=
EXTT7=
EXTT8=
EXTT9=
EXTT10=
EXTT11=
EXTT12=
EXTT13=
PLAYORDER=
